<?xml version="1.0" standalone="no"?>
<!DOCTYPE svg PUBLIC "-//W3C//DTD SVG 20010904//EN"
 "http://www.w3.org/TR/2001/REC-SVG-20010904/DTD/svg10.dtd">
<svg version="1.0" xmlns="http://www.w3.org/2000/svg"
 width="2048.000000pt" height="2048.000000pt" viewBox="0 0 2048.000000 2048.000000"
 preserveAspectRatio="xMidYMid meet">
<metadata>
Created by potrace 1.14, written by Peter Selinger 2001-2017
</metadata>
<g transform="translate(0.000000,2048.000000) scale(0.100000,-0.100000)"
fill="#000000" stroke="none">
<path d="M9917 20244 c-1 -1 -90 -5 -197 -9 -107 -4 -213 -9 -235 -10 -68 -4
-238 -16 -285 -20 -25 -3 -76 -7 -115 -10 -38 -3 -108 -10 -155 -16 -47 -5
-105 -12 -130 -15 -25 -3 -56 -7 -70 -9 -14 -2 -45 -7 -70 -10 -25 -3 -70 -10
-100 -15 -30 -5 -71 -12 -90 -15 -28 -5 -150 -29 -195 -39 -5 -1 -26 -6 -45
-10 -940 -202 -1638 -454 -2640 -952 -458 -228 -478 -266 -135 -256 329 10
655 4 801 -12 16 -2 61 -7 99 -10 250 -24 534 -87 970 -216 190 -56 610 -194
685 -225 19 -8 98 -38 175 -66 205 -76 445 -170 520 -203 17 -8 75 -33 130
-56 55 -23 129 -55 165 -72 36 -16 74 -33 85 -38 11 -5 232 -113 490 -241 259
-128 512 -252 564 -275 l94 -43 61 24 c74 27 274 115 411 180 55 26 132 62
170 80 39 18 142 67 230 110 134 64 322 151 554 256 24 11 65 29 91 39 26 10
67 27 91 38 75 34 221 94 284 117 33 13 127 48 209 79 132 50 604 214 624 216
4 1 45 12 91 27 47 14 92 27 100 28 9 2 16 4 16 5 0 1 7 3 15 5 8 1 56 14 105
28 85 24 322 84 362 92 10 2 63 12 118 24 135 27 317 58 390 67 33 3 62 8 65
9 5 3 37 7 175 21 177 18 475 23 685 11 226 -13 355 -18 350 -14 -19 16 -355
214 -440 259 -552 294 -1254 573 -1955 777 -77 23 -153 45 -170 51 -83 26
-521 133 -675 164 -164 33 -384 68 -510 81 -30 3 -71 8 -90 10 -19 2 -69 7
-110 10 -41 4 -86 8 -100 10 -14 2 -74 6 -135 10 -60 3 -132 8 -160 10 -164
14 -1157 29 -1168 19z"/>
<path d="M16960 17449 c-131 -21 -469 -125 -597 -184 -17 -8 -34 -15 -37 -15
-3 0 -29 -11 -58 -24 -29 -13 -75 -34 -103 -46 -99 -44 -332 -163 -425 -218
-92 -53 -125 -74 -315 -197 -206 -134 -540 -379 -750 -550 -337 -274 -483
-398 -745 -636 -52 -47 -110 -99 -128 -115 -19 -16 -48 -42 -66 -59 -17 -16
-76 -70 -130 -120 -55 -49 -111 -101 -126 -115 -15 -14 -65 -60 -112 -102 -46
-43 -98 -90 -114 -105 -16 -15 -71 -66 -121 -112 l-92 -84 27 -36 c15 -19 35
-45 44 -56 9 -11 102 -128 207 -260 105 -132 196 -246 202 -254 7 -7 49 -61
96 -120 46 -58 114 -144 151 -191 74 -94 474 -626 537 -715 22 -31 46 -64 53
-73 25 -31 306 -428 375 -528 37 -54 98 -142 134 -194 73 -104 507 -755 538
-807 11 -18 58 -91 105 -163 47 -72 92 -142 100 -155 8 -13 57 -91 108 -172
51 -81 99 -157 105 -168 7 -11 23 -38 37 -60 14 -22 30 -49 37 -60 6 -11 68
-112 136 -225 69 -113 133 -219 143 -237 11 -18 80 -137 155 -265 75 -128 146
-249 157 -268 10 -19 33 -59 51 -88 17 -29 31 -54 31 -56 0 -1 32 -58 70 -125
39 -68 70 -125 70 -127 0 -2 10 -21 23 -42 13 -20 50 -86 82 -147 32 -60 61
-114 65 -120 4 -5 35 -64 70 -130 35 -66 83 -158 108 -205 144 -271 409 -816
562 -1155 29 -64 170 -395 170 -399 0 -2 8 -21 17 -42 9 -22 18 -43 19 -49 1
-5 18 -48 37 -95 98 -243 214 -606 302 -950 10 -38 38 -166 61 -280 27 -129
29 -141 38 -200 3 -19 8 -46 10 -60 6 -33 33 -235 43 -325 4 -38 8 -185 7
-325 -1 -244 -2 -261 -31 -405 -38 -180 -47 -245 -36 -245 34 2 184 206 368
500 90 144 206 335 243 400 13 25 48 86 77 135 29 50 65 113 80 140 42 78 90
165 124 225 117 207 313 629 388 830 13 36 30 79 38 95 60 130 314 911 385
1180 10 39 34 131 54 205 35 134 66 266 92 390 7 36 16 76 18 90 16 75 26 129
31 165 2 22 7 49 9 60 5 25 13 92 21 170 4 33 8 71 11 85 2 14 6 57 9 95 3 39
8 90 11 115 4 41 9 123 19 285 19 327 24 930 12 1330 -7 235 -11 305 -23 480
-3 55 -8 125 -9 155 -2 30 -6 82 -9 115 -4 33 -9 85 -12 115 -10 110 -31 289
-38 325 -2 11 -7 45 -11 75 -4 30 -9 62 -10 70 -7 36 -35 187 -40 209 -24 121
-132 551 -176 699 -23 75 -45 151 -49 167 -45 167 -235 706 -323 915 -6 14
-11 27 -12 30 -14 41 -141 333 -206 472 -109 234 -206 423 -344 673 -299 539
-672 1075 -1087 1560 -9 11 -26 31 -38 45 -186 217 -462 486 -603 589 -109 80
-160 92 -297 70z"/>
<path d="M3430 17434 c-111 -28 -219 -105 -405 -290 -503 -500 -924 -1050
-1325 -1729 -79 -134 -99 -170 -198 -351 -58 -106 -271 -532 -306 -614 -16
-36 -46 -103 -67 -148 -22 -46 -39 -86 -39 -89 0 -2 -9 -23 -19 -46 -134 -295
-365 -958 -456 -1312 -5 -16 -9 -34 -11 -40 -58 -221 -127 -544 -159 -745 -3
-19 -7 -46 -10 -60 -2 -14 -7 -43 -10 -65 -4 -22 -8 -49 -10 -60 -2 -11 -6
-40 -9 -65 -6 -42 -20 -131 -30 -190 -3 -14 -7 -43 -10 -65 -3 -22 -12 -85
-20 -140 -19 -130 -27 -185 -41 -300 -3 -22 -8 -57 -10 -77 -17 -131 -23 -188
-30 -268 -4 -41 -8 -86 -10 -100 -24 -161 -24 -730 0 -922 2 -14 6 -59 10 -98
4 -39 8 -81 11 -93 2 -12 6 -46 9 -77 3 -31 7 -65 9 -76 2 -11 7 -50 10 -86 4
-37 9 -77 11 -90 3 -13 7 -47 11 -76 3 -29 7 -63 10 -75 2 -12 7 -42 10 -67 3
-25 7 -56 10 -70 2 -14 11 -70 19 -125 9 -55 18 -111 20 -125 3 -14 12 -63 20
-110 8 -47 16 -95 19 -106 2 -12 7 -39 10 -60 4 -22 8 -46 11 -54 2 -8 6 -31
9 -50 3 -19 14 -75 25 -125 11 -49 22 -101 24 -115 3 -14 12 -55 21 -91 8 -37
17 -78 20 -90 10 -58 102 -409 147 -569 53 -185 170 -543 213 -654 14 -36 38
-96 52 -133 38 -99 103 -261 129 -318 12 -27 32 -72 44 -100 12 -27 32 -72 44
-100 31 -72 227 -464 288 -575 133 -247 339 -586 518 -854 47 -71 91 -136 96
-145 24 -38 50 -77 60 -87 5 -6 17 -22 25 -34 39 -59 121 -158 135 -163 20 -8
19 5 -4 83 -67 225 -65 215 -81 345 -8 69 -6 461 3 500 3 11 8 55 12 98 3 43
8 88 10 100 2 12 6 40 10 62 11 75 26 170 32 200 3 17 7 39 8 50 8 50 51 249
79 365 68 272 200 717 246 825 4 11 27 72 50 135 43 116 150 390 175 445 8 17
48 107 89 202 145 333 408 876 597 1233 75 143 346 641 366 675 7 11 15 26 19
34 4 8 57 100 117 205 60 105 121 211 135 236 14 25 42 72 62 105 20 33 39 67
43 75 4 8 17 31 30 51 12 20 54 89 92 153 39 64 78 129 87 144 10 15 21 34 25
42 3 8 9 17 12 20 3 3 44 68 90 145 197 327 980 1530 1011 1555 4 3 15 20 25
38 11 17 23 32 27 32 4 0 8 4 8 9 0 8 260 386 293 426 9 12 125 173 147 205 8
13 36 50 61 84 25 33 70 95 100 136 87 118 300 402 323 431 12 14 32 41 46 59
43 58 282 364 309 396 14 17 40 48 56 69 28 36 78 99 294 365 47 58 88 107 91
110 31 27 121 153 113 158 -11 7 -135 119 -203 182 -21 19 -68 62 -105 95 -38
33 -76 67 -84 76 -9 8 -63 58 -121 110 -58 51 -110 98 -116 104 -6 5 -48 44
-94 85 -47 41 -98 88 -115 104 -16 15 -50 45 -74 65 -25 20 -54 45 -66 56
-238 225 -897 761 -1161 945 -187 130 -231 161 -239 167 -13 11 -223 145 -250
159 -11 6 -80 46 -154 88 -288 165 -581 289 -921 389 -176 52 -287 64 -380 41z"/>
<path d="M10217 12110 c-49 -25 -200 -123 -217 -140 -3 -3 -39 -30 -80 -62
-176 -132 -554 -447 -736 -613 -12 -11 -37 -33 -55 -49 -69 -60 -238 -212
-344 -310 -220 -202 -364 -337 -518 -486 -66 -63 -150 -143 -186 -178 -117
-112 -551 -545 -721 -719 -205 -210 -476 -496 -592 -624 -13 -14 -61 -67 -108
-119 -102 -111 -85 -92 -195 -215 -49 -55 -92 -102 -95 -105 -3 -3 -64 -72
-135 -155 -71 -82 -132 -152 -135 -155 -5 -4 -49 -56 -185 -219 -11 -13 -25
-29 -30 -35 -52 -58 -420 -511 -517 -636 -201 -260 -338 -442 -488 -650 -131
-182 -462 -676 -540 -805 -29 -49 -85 -141 -122 -204 -113 -187 -377 -678
-383 -711 -1 -3 -20 -45 -43 -93 -23 -49 -42 -91 -42 -93 0 -2 -11 -27 -24
-56 -13 -29 -36 -84 -51 -123 -14 -38 -31 -81 -37 -95 -44 -102 -151 -463
-173 -585 -28 -158 -39 -269 -39 -415 0 -172 12 -259 51 -385 24 -78 107 -247
124 -253 5 -2 9 -8 9 -14 0 -17 129 -168 215 -251 44 -43 123 -113 175 -155
52 -42 97 -79 100 -82 16 -19 367 -267 545 -386 472 -315 959 -591 1399 -793
36 -17 94 -44 129 -60 179 -82 535 -226 697 -283 47 -16 92 -32 100 -35 8 -4
17 -7 20 -7 3 -1 39 -13 80 -28 180 -65 530 -168 755 -225 33 -8 67 -16 75
-18 68 -19 310 -73 396 -89 71 -14 203 -39 224 -42 14 -3 48 -9 75 -14 28 -5
70 -12 95 -15 25 -3 52 -8 60 -10 8 -2 40 -7 70 -10 30 -3 62 -8 70 -10 8 -2
44 -7 80 -10 36 -3 72 -8 80 -10 8 -2 49 -7 90 -10 41 -4 86 -8 100 -10 14 -2
63 -7 109 -10 46 -4 107 -8 135 -10 325 -25 1099 -25 1366 0 19 2 82 6 140 10
58 3 116 8 130 10 14 2 61 6 105 10 44 3 91 7 105 10 14 2 52 7 85 10 70 7
277 32 400 50 118 17 296 47 450 76 61 12 121 23 135 25 14 3 95 21 180 40 85
19 163 37 173 39 10 2 27 7 37 10 10 3 27 7 37 9 10 2 38 9 63 16 25 7 52 13
60 15 8 2 78 21 155 44 320 92 675 220 960 346 17 7 57 24 90 38 33 14 96 42
140 62 44 21 105 48 135 62 78 36 479 237 570 285 288 156 720 407 797 464 17
13 34 24 37 24 8 0 402 265 416 280 3 3 30 23 60 45 293 210 581 481 687 645
63 97 115 232 129 330 33 246 19 456 -52 750 -14 58 -27 112 -29 120 -15 67
-132 401 -180 515 -87 205 -245 532 -361 745 -295 545 -799 1299 -1287 1925
-21 28 -51 66 -65 85 -88 113 -351 441 -381 475 -20 22 -54 62 -76 89 -22 27
-45 54 -50 60 -6 6 -53 60 -105 121 -52 60 -104 119 -115 130 -11 12 -49 54
-85 95 -36 40 -69 78 -75 84 -5 6 -59 65 -119 131 -60 66 -117 127 -125 136
-9 9 -68 72 -131 140 -63 68 -163 173 -221 234 -58 60 -153 159 -210 220 -165
175 -1266 1274 -1458 1455 -96 91 -219 208 -275 261 -124 118 -148 140 -261
244 -120 110 -128 118 -225 205 -46 41 -88 80 -94 85 -58 56 -357 310 -469
399 -213 169 -334 246 -384 246 -10 0 -44 -14 -76 -30z"/>
</g>
</svg>
