<?xml version="1.0" encoding="UTF-8"?>
<!-- Generator: Adobe Illustrator 24.2.1, SVG Export Plug-In . SVG Version: 6.00 Build 0)  -->
<svg version="1.1" id="Layer_1" xmlns="http://www.w3.org/2000/svg" xmlns:xlink="http://www.w3.org/1999/xlink" x="0px" y="0px" viewBox="0 0 1000 698.4" style="enable-background:new 0 0 1000 698.4;" xml:space="preserve">
<style type="text/css">
	.st0{fill:transparent;}
	.st1{fill:#9AF00B;}
</style>
<g>
	<rect x="0" y="0.2" class="st0" width="1000" height="698"/>
</g>
<g>
	<path class="st1" d="M940.9,8.9c7.4,0,14.4,1.5,21,4.4c6.6,2.9,12.3,6.8,17.2,11.6s8.7,10.6,11.6,17.2c2.9,6.6,4.4,13.6,4.4,21   v572.3c0,7.4-1.5,14.4-4.4,21c-2.9,6.6-6.8,12.3-11.6,17.2s-10.6,8.7-17.2,11.6c-6.6,2.9-13.6,4.4-21,4.4H59.1   c-7.4,0-14.4-1.5-21-4.4c-6.6-2.9-12.3-6.8-17.2-11.6S12.3,663,9.4,656.4c-2.9-6.6-4.4-13.6-4.4-21V63c0-7.4,1.5-14.4,4.4-21   c2.9-6.6,6.8-12.3,11.6-17.2s10.6-8.7,17.2-11.6c6.6-2.9,13.6-4.4,21-4.4H940.9z M66.9,70.8v185.6h67.2   c-3.6-10.6-5.3-20.9-5.3-30.9c0-12.9,2.4-25,7.3-36.3c4.8-11.3,11.4-21.1,19.8-29.5c8.4-8.4,18.2-15,29.5-19.8   c11.3-4.8,23.4-7.3,36.3-7.3c10,0,20.3,1.8,30.9,5.3V70.8H66.9z M66.9,627.6h185.6V362.3l-71.1,70.6l-43.5-43.5l70.6-71.1H66.9   V627.6z M190.6,225.5c0,8.4,3.1,15.6,9.2,21.8c6.1,6.1,13.4,9.2,21.8,9.2h30.9v-30.9c0-8.4-3.1-15.6-9.2-21.8   c-6.1-6.1-13.4-9.2-21.8-9.2c-8.4,0-15.6,3.1-21.8,9.2C193.7,209.8,190.6,217.1,190.6,225.5z M933.1,70.8H314.4V138   c10.6-3.5,20.9-5.3,30.9-5.3c12.9,0,25,2.4,36.3,7.3c11.3,4.8,21.1,11.4,29.5,19.8c8.4,8.4,15,18.2,19.8,29.5   c4.8,11.3,7.3,23.4,7.3,36.3c0,10-1.8,20.3-5.3,30.9h500.3V70.8z M345.3,256.4c8.4,0,15.6-3.1,21.8-9.2c6.1-6.1,9.2-13.4,9.2-21.8   c0-8.4-3.1-15.6-9.2-21.8c-6.1-6.1-13.4-9.2-21.8-9.2c-8.4,0-15.6,3.1-21.8,9.2c-6.1,6.1-9.2,13.4-9.2,21.8v30.9H345.3z    M933.1,627.6V318.3H358.4l70.6,71.1l-43.5,43.5l-71.1-70.6v265.4H933.1z"/>
</g>
</svg>