<svg width="45" height="45" viewBox="0 0 45 45" fill="none" xmlns="http://www.w3.org/2000/svg">
<path d="M22.5 12.3925C21.9873 11.8798 21.4819 11.3598 20.9839 10.8325C20.4858 10.3051 19.9805 9.7851 19.4678 9.27241C18.9551 8.75971 18.4277 8.29096 17.8857 7.86616C17.3438 7.44135 16.7651 7.05317 16.1499 6.70161C15.5347 6.35005 14.8828 6.08637 14.1943 5.91059C13.5059 5.73481 12.7588 5.6396 11.9531 5.62495C10.6787 5.62495 9.49219 5.85932 8.39355 6.32807C7.29492 6.79682 6.32812 7.44868 5.49316 8.28364C4.6582 9.1186 4.00635 10.0854 3.5376 11.184C3.06885 12.2827 2.82715 13.4765 2.8125 14.7656C2.8125 15.996 3.03955 17.1606 3.49365 18.2592C3.94775 19.3579 4.61426 20.3466 5.49316 21.2255L22.5 38.2324V42.2094L3.49365 23.225C2.36572 22.1118 1.50146 20.8227 0.900879 19.3579C0.300293 17.893 0 16.3623 0 14.7656C0 13.6669 0.13916 12.6123 0.41748 11.6015C0.695801 10.5908 1.09863 9.63862 1.62598 8.74506C2.15332 7.85151 2.77588 7.04585 3.49365 6.32807C4.21143 5.6103 5.01709 4.98774 5.91064 4.4604C6.8042 3.93305 7.75635 3.53022 8.76709 3.2519C9.77783 2.97358 10.8398 2.8271 11.9531 2.81245C13.1836 2.81245 14.2749 2.95161 15.2271 3.22993C16.1792 3.50825 17.0508 3.88911 17.8418 4.37251C18.6328 4.8559 19.4019 5.44917 20.1489 6.15229C20.896 6.85542 21.6797 7.60981 22.5 8.41547C23.3203 7.59516 24.0967 6.84077 24.8291 6.15229C25.5615 5.46381 26.3306 4.87788 27.1362 4.39448C27.9419 3.91108 28.8208 3.5229 29.7729 3.22993C30.7251 2.93696 31.8164 2.7978 33.0469 2.81245C34.6875 2.81245 36.2329 3.12739 37.6831 3.75727C39.1333 4.38715 40.4004 5.23676 41.4844 6.3061C42.5684 7.37544 43.4253 8.64253 44.0552 10.1074C44.6851 11.5722 45 13.1249 45 14.7656C45 16.3623 44.6997 17.8857 44.0991 19.3359C43.4985 20.7861 42.6343 22.0825 41.5063 23.225L39.375 25.3564V21.3574C40.2832 20.4638 40.9717 19.4677 41.4404 18.3691C41.9092 17.2705 42.1509 16.0693 42.1655 14.7656C42.1655 13.4765 41.9312 12.2827 41.4624 11.184C40.9937 10.0854 40.3491 9.13325 39.5288 8.32758C38.7085 7.52192 37.7417 6.88471 36.6284 6.41596C35.5151 5.94721 34.3213 5.71284 33.0469 5.71284C31.8018 5.71284 30.7031 5.91059 29.751 6.3061C28.7988 6.70161 27.9126 7.22163 27.0923 7.86616C26.272 8.51069 25.5029 9.22846 24.7852 10.0195C24.0674 10.8105 23.3057 11.6015 22.5 12.3925ZM36.5625 25.3124V33.7499H45V36.5624H36.5625V44.9999H33.75V36.5624H25.3125V33.7499H33.75V25.3124H36.5625Z" fill="white"/>
</svg>
