<svg width="45" height="45" viewBox="0 0 45 45" fill="none" xmlns="http://www.w3.org/2000/svg">
<path d="M8.4375 14.0625V8.4375H14.0625V14.0625H8.4375ZM2.8125 19.6875V2.8125H19.6875V19.6875H2.8125ZM5.625 5.625V16.875H16.875V5.625H5.625ZM8.4375 36.5625V30.9375H14.0625V36.5625H8.4375ZM2.8125 42.1875V25.3125H19.6875V42.1875H2.8125ZM5.625 28.125V39.375H16.875V28.125H5.625ZM36.5625 8.4375V14.0625H30.9375V8.4375H36.5625ZM25.3125 2.8125H42.1875V19.6875H25.3125V2.8125ZM39.375 16.875V5.625H28.125V16.875H39.375ZM25.3125 33.75H28.125V36.5625H25.3125V33.75ZM30.9375 28.125H28.125V30.9375H25.3125V25.3125H30.9375V28.125ZM36.5625 25.3125V28.125H33.75V25.3125H36.5625ZM33.75 28.125V33.75H28.125V30.9375H30.9375V28.125H33.75ZM28.125 36.5625H33.75V39.375H30.9375V42.1875H25.3125V39.375H28.125V36.5625ZM33.75 42.1875V39.375H39.375V42.1875H33.75ZM42.1875 39.375H39.375V33.75H42.1875V39.375ZM39.375 28.125V25.3125H42.1875V30.9375H39.375V33.75H36.5625V28.125H39.375ZM33.75 36.5625V33.75H36.5625V36.5625H33.75Z" fill="white"/>
</svg>
