<svg width="45" height="45" viewBox="0 0 45 45" fill="none" xmlns="http://www.w3.org/2000/svg">
<path d="M35.1562 33.75C35.7422 33.75 36.2915 33.8599 36.8042 34.0796C37.3169 34.2993 37.7637 34.5996 38.1445 34.9805C38.5254 35.3613 38.8257 35.8081 39.0454 36.3208C39.2651 36.8335 39.375 37.3828 39.375 37.9688C39.375 38.5547 39.2651 39.104 39.0454 39.6167C38.8257 40.1294 38.5254 40.5762 38.1445 40.957C37.7637 41.3379 37.3169 41.6382 36.8042 41.8579C36.2915 42.0776 35.7422 42.1875 35.1562 42.1875C34.5703 42.1875 34.021 42.0776 33.5083 41.8579C32.9956 41.6382 32.5488 41.3379 32.168 40.957C31.7871 40.5762 31.4868 40.1294 31.2671 39.6167C31.0474 39.104 30.9375 38.5547 30.9375 37.9688C30.9375 37.5146 31.0181 37.0459 31.1792 36.5625H19.4458C19.6069 37.0459 19.6875 37.5146 19.6875 37.9688C19.6875 38.5547 19.5776 39.104 19.3579 39.6167C19.1382 40.1294 18.8379 40.5762 18.457 40.957C18.0762 41.3379 17.6294 41.6382 17.1167 41.8579C16.604 42.0776 16.0547 42.1875 15.4688 42.1875C14.8828 42.1875 14.3335 42.0776 13.8208 41.8579C13.3081 41.6382 12.8613 41.3379 12.4805 40.957C12.0996 40.5762 11.7993 40.1294 11.5796 39.6167C11.3599 39.104 11.25 38.5547 11.25 37.9688C11.25 37.1631 11.4624 36.416 11.8872 35.7275C12.312 35.0391 12.8979 34.519 13.645 34.1675L4.13086 5.625H0V2.8125H6.17432L8.04199 8.4375H45L38.4302 28.125H14.6118L16.4795 33.75H35.1562ZM8.98682 11.25L13.667 25.3125H36.4087L41.0889 11.25H8.98682ZM16.875 37.9688C16.875 37.5879 16.7358 37.2583 16.4575 36.98C16.1792 36.7017 15.8496 36.5625 15.4688 36.5625C15.0879 36.5625 14.7583 36.7017 14.48 36.98C14.2017 37.2583 14.0625 37.5879 14.0625 37.9688C14.0625 38.3496 14.2017 38.6792 14.48 38.9575C14.7583 39.2358 15.0879 39.375 15.4688 39.375C15.8496 39.375 16.1792 39.2358 16.4575 38.9575C16.7358 38.6792 16.875 38.3496 16.875 37.9688ZM35.1562 39.375C35.5371 39.375 35.8667 39.2358 36.145 38.9575C36.4233 38.6792 36.5625 38.3496 36.5625 37.9688C36.5625 37.5879 36.4233 37.2583 36.145 36.98C35.8667 36.7017 35.5371 36.5625 35.1562 36.5625C34.7754 36.5625 34.4458 36.7017 34.1675 36.98C33.8892 37.2583 33.75 37.5879 33.75 37.9688C33.75 38.3496 33.8892 38.6792 34.1675 38.9575C34.4458 39.2358 34.7754 39.375 35.1562 39.375Z" fill="white"/>
</svg>
