<?xml version="1.0" encoding="UTF-8"?>
<!-- Generator: Adobe Illustrator 24.2.1, SVG Export Plug-In . SVG Version: 6.00 Build 0)  -->
<svg version="1.1" id="Layer_1" xmlns="http://www.w3.org/2000/svg" xmlns:xlink="http://www.w3.org/1999/xlink" x="0px" y="0px" viewBox="0 0 1000 1000" style="enable-background:new 0 0 1000 1000;" xml:space="preserve">
<style type="text/css">
	.st0{fill:transparent;}
	.st1{fill:#9AF00B;}
</style>
<g>
	<rect x="0" class="st0" width="1000" height="1000"/>
</g>
<g>
	<path class="st1" d="M5,429.3V5h424.3v424.3H5z M5,995V570.7h424.3V995H5z M75.7,75.7v282.9h282.9V75.7H75.7z M75.7,641.4v282.9   h282.9V641.4H75.7z M146.4,287.9V146.4h141.4v141.4H146.4z M146.4,853.6V712.1h141.4v141.4H146.4z M570.7,5H995v424.3H570.7V5z    M712.1,641.4h-70.7v70.7h-70.7V570.7h141.4V641.4z M570.7,782.9h70.7v70.7h-70.7V782.9z M641.4,853.6h141.4v70.7h-70.7V995H570.7   v-70.7h70.7V853.6z M924.3,358.6V75.7H641.4v282.9H924.3z M782.9,641.4v141.4H641.4v-70.7h70.7v-70.7H782.9z M853.6,146.4v141.4   H712.1V146.4H853.6z M853.6,570.7v70.7h-70.7v-70.7H853.6z M782.9,853.6v-70.7h70.7v70.7H782.9z M782.9,995v-70.7h141.4V995H782.9z    M924.3,641.4v-70.7H995v141.4h-70.7v70.7h-70.7V641.4H924.3z M995,924.3h-70.7V782.9H995V924.3z"/>
</g>
</svg>